<svg xmlns="http://www.w3.org/2000/svg" viewBox="0 0 440.17 440.39"><defs><style>.cls-1{fill:#f57c00;}.cls-2{fill:#ff9800;}.cls-3{fill:#fff9f5;}.cls-4{fill:#7f4e2d;}.cls-5{fill:#ff8380;}.cls-6{fill:#ffa49f;}</style></defs><title>icon3_a_present_1</title><g id="图层_2" data-name="图层 2"><g id="图层_1-2" data-name="图层 1"><g id="Main"><path class="cls-1" d="M.17,117.54V26A25,25,0,0,1,39.67,5.68L152.53,86.09h.64C147.05,114,122,136.62,88.91,144.25c-28.55,6.57-59.24,1.09-82-14.22A15.05,15.05,0,0,1,.17,117.54Z"/><path class="cls-2" d="M440,168.25V107.59A528.29,528.29,0,0,0,316,68.91l0,0h-.31a535,535,0,0,0-89.22-8.51h-1.69l-4.25,0A529.44,529.44,0,0,0,0,108.25V384.44H440Z"/><path class="cls-2" d="M440.17,116.54V25c0-20.32-23-32.15-39.51-20.36L287.8,85.09h-.63c6.11,27.88,31.14,50.53,64.26,58.16,28.54,6.57,59.24,1.09,82.05-14.22a15.08,15.08,0,0,0,6.69-12.49Z"/><path class="cls-3" d="M440,343.06A533,533,0,0,0,0,344.79v45.6a50,50,0,0,0,50,50H390a50,50,0,0,0,50-50V343.06Z"/><g id="face"><path class="cls-4" d="M132.87,256.43c0,20.79-.81,39.16-34.2,39.16-32.08,0-34.2-19.07-34.2-39.16,0-31.91,10.73-44.62,34.15-44.62C119.59,211.81,132.87,217.93,132.87,256.43Z"/><path class="cls-4" d="M305.71,259.16c0,20.79.81,39.16,34.2,39.16,32.08,0,34.2-19.07,34.2-39.16,0-31.91-10.73-44.62-34.14-44.62C319,214.54,305.71,220.66,305.71,259.16Z"/><path class="cls-4" d="M218,284.1c-9.23,0-16.39,5.67-20.4,7.4,0,9.89,5.39,15.87,20.75,21.84,15.25-5.4,19-13,20-21.84C234.41,289.77,227.25,284.1,218,284.1Z"/><path class="cls-5" d="M259.43,359.7A63.06,63.06,0,0,0,260.74,342s-20,3.56-42.22-7.47c-22.93,11.23-43.29,7.47-43.29,7.47s-2.3,29.33,17.42,43.15C207,368.09,232.64,356.77,259.43,359.7Z"/><path class="cls-6" d="M259.43,359.7c-26.79-2.93-52.43,8.39-66.78,25.43,6.07,4.25,14.24,7,25.21,7C246.57,392.17,256.26,374.14,259.43,359.7Z"/></g></g></g></g></svg>